<svg width="84" height="84" viewBox="0 0 84 84" fill="none" xmlns="http://www.w3.org/2000/svg">
<rect x="1" y="1" width="82" height="82" rx="41" fill="#171717"/>
<rect x="1" y="1" width="82" height="82" rx="41" stroke="white" stroke-width="2"/>
<path d="M66.3308 39.9562H65.8305C59.9991 39.9562 54.1676 39.9516 48.3371 39.9626C47.6789 39.9635 47.1668 39.738 46.745 39.2414C46.2539 38.6636 45.7463 38.0985 45.2388 37.5343C44.524 36.7401 43.6677 36.7283 42.9173 37.5042C42.3057 38.1368 41.6986 38.774 41.0961 39.4167C40.7556 39.78 40.3585 39.9608 39.8492 39.9608C32.621 39.9535 25.3929 39.9562 18.1638 39.9553C18.0305 39.9553 17.8972 39.9434 17.6699 39.9334C17.826 38.931 17.9401 37.957 18.1382 37.0003C18.3226 36.1121 18.6084 35.2467 18.8247 34.3648C18.9142 34.0015 19.1004 33.9093 19.4646 33.9102C27.0123 33.9221 34.559 33.912 42.1067 33.9267C43.1848 33.9285 44.052 33.5962 44.7257 32.7372C45.0991 32.2607 45.5172 31.8161 45.9344 31.3752C46.5816 30.6914 47.4479 30.7124 48.0769 31.4153C48.5936 31.9914 49.1203 32.5601 49.6142 33.1562C50.0798 33.7176 50.6649 33.9248 51.377 33.9239C55.7652 33.9148 60.1543 33.9248 64.5425 33.9102C64.9441 33.9084 65.1075 34.0207 65.2308 34.4123C65.7922 36.197 66.1756 38.0109 66.329 39.9571L66.3308 39.9562Z" fill="white"/>
<path d="M20.0464 52.6214C19.1034 50.6806 18.4488 48.6732 18.0444 46.5206C18.259 46.5206 18.4361 46.5206 18.6132 46.5206C23.5947 46.5206 28.5763 46.5151 33.5579 46.5252C34.5492 46.527 35.3553 46.1956 35.9888 45.4233C36.3932 44.9313 36.8205 44.4575 37.2541 43.9901C37.8922 43.3027 38.7749 43.3045 39.403 43.9928C39.9352 44.5753 40.4665 45.1604 40.9741 45.7647C41.4296 46.3088 41.9983 46.5243 42.6948 46.5233C50.2735 46.5169 57.8522 46.5197 65.43 46.5197C65.6098 46.5197 65.7897 46.5197 65.9996 46.5197C65.6217 48.5837 64.9818 50.5144 64.1264 52.3804C63.9941 52.6697 63.7841 52.6223 63.565 52.6223C59.2517 52.6223 54.9383 52.6223 50.625 52.6223C46.9799 52.6223 43.3348 52.6131 39.6906 52.6305C38.9493 52.6341 38.3742 52.3959 37.9041 51.8217C37.433 51.2466 36.9273 50.7007 36.4298 50.1475C35.7825 49.4272 34.9199 49.3971 34.2416 50.0817C33.5798 50.75 32.9599 51.4638 32.2661 52.0974C31.9859 52.3539 31.5614 52.594 31.2008 52.5976C27.4964 52.6341 23.791 52.6195 20.0445 52.6195L20.0464 52.6214Z" fill="white"/>
<path d="M61.4541 27.3722C60.26 27.3722 59.0651 27.3722 57.871 27.3722C57.5524 27.3722 57.2329 27.3694 56.9143 27.3722C56.3502 27.3786 55.881 27.1686 55.5058 26.7505C54.9489 26.1288 54.403 25.498 53.8407 24.8809C53.1889 24.1652 52.3198 24.1488 51.6489 24.8371C51.0455 25.456 50.4448 26.0795 49.8615 26.7176C49.4461 27.1722 48.9623 27.3795 48.336 27.3786C39.9248 27.3676 31.5127 27.3713 23.1014 27.3713C22.9362 27.3713 22.771 27.3713 22.4624 27.3713C26.6443 22.0245 31.9444 18.7117 38.5701 17.8554C47.9399 16.645 55.5532 19.9742 61.5052 27.2015C61.4879 27.2581 61.4705 27.3147 61.4532 27.3713L61.4541 27.3722Z" fill="white"/>
<path d="M24.2544 58.682C25.2622 58.5953 25.9806 58.0923 26.5713 57.341C26.9081 56.9128 27.2906 56.5194 27.6558 56.1122C28.2793 55.4166 29.1684 55.3947 29.8019 56.0766C30.3177 56.6326 30.8271 57.1958 31.3073 57.7819C31.7975 58.3816 32.4 58.6236 33.1732 58.6226C41.8565 58.6099 50.5397 58.6144 59.2239 58.6144C59.4029 58.6144 59.5827 58.6144 59.7616 58.6144C55.6135 63.0747 50.5324 65.6984 44.4956 66.2643C36.5591 67.0083 29.8202 64.3865 24.2544 58.6811V58.682Z" fill="white"/>
</svg>
