<svg width="24" height="24" viewBox="0 0 24 24" fill="none" xmlns="http://www.w3.org/2000/svg">
<path d="M14.935 9.352C14.8537 9.35236 14.7733 9.33532 14.6991 9.30203C14.625 9.26874 14.5588 9.21997 14.505 9.159L13.933 8.513C13.8908 8.46562 13.839 8.4277 13.7811 8.40173C13.7232 8.37576 13.6605 8.36234 13.597 8.36234C13.5335 8.36234 13.4708 8.37576 13.4129 8.40173C13.355 8.4277 13.3032 8.46562 13.261 8.513L12.771 9.068C12.6914 9.1575 12.5937 9.22916 12.4845 9.27827C12.3752 9.32739 12.2568 9.35285 12.137 9.353H4.42C4.19715 9.99095 4.05602 10.6546 4 11.328H11.285C11.3485 11.3281 11.4114 11.3152 11.4699 11.2903C11.5283 11.2654 11.5811 11.2289 11.625 11.183L12.303 10.476C12.3449 10.4322 12.3951 10.3973 12.4508 10.3735C12.5065 10.3496 12.5664 10.3372 12.627 10.337H12.655C12.783 10.337 12.906 10.392 12.991 10.489L13.563 11.134C13.6167 11.1952 13.6828 11.2441 13.757 11.2776C13.8312 11.311 13.9116 11.3282 13.993 11.328H19.939C19.883 10.6546 19.7419 9.99095 19.519 9.353L14.935 9.352ZM8.41 15.479C8.538 15.479 8.66 15.427 8.748 15.334L9.428 14.626C9.46984 14.5825 9.51999 14.5479 9.57548 14.5242C9.63097 14.5005 9.69066 14.4882 9.751 14.488H9.779C9.84249 14.488 9.90525 14.5015 9.96316 14.5275C10.0211 14.5536 10.0728 14.5916 10.115 14.639L10.687 15.285C10.797 15.408 10.952 15.479 11.117 15.479H19.175C19.48 14.846 19.7002 14.1755 19.83 13.485H12.095C12.0136 13.4852 11.9332 13.468 11.859 13.4346C11.7848 13.4011 11.7187 13.3522 11.665 13.291L11.094 12.645C11.0518 12.5975 11 12.5594 10.942 12.5333C10.884 12.5073 10.8211 12.4938 10.7575 12.4938C10.6939 12.4938 10.631 12.5073 10.573 12.5333C10.515 12.5594 10.4632 12.5975 10.421 12.645L9.931 13.2C9.85137 13.2895 9.75373 13.3612 9.64446 13.4103C9.5352 13.4594 9.41679 13.4849 9.297 13.485H4.11C4.242 14.187 4.463 14.855 4.765 15.479H8.41ZM14.126 7.195C14.1895 7.19507 14.2524 7.18225 14.3109 7.15733C14.3693 7.13241 14.4221 7.0959 14.466 7.05L15.144 6.343C15.1859 6.29922 15.2361 6.26434 15.2918 6.24045C15.3475 6.21657 15.4074 6.20417 15.468 6.204H15.496C15.624 6.204 15.747 6.259 15.832 6.356L16.404 7.001C16.4577 7.06216 16.5238 7.11111 16.598 7.14457C16.6722 7.17804 16.7526 7.19523 16.834 7.195H18.366C17.6212 6.20232 16.6555 5.39676 15.5453 4.84219C14.4351 4.28761 13.211 3.99926 11.97 4C10.7292 3.99942 9.50526 4.28784 8.39525 4.84241C7.28524 5.39698 6.31965 6.20245 5.575 7.195H14.126ZM8.952 17.456C8.87063 17.4562 8.79016 17.439 8.71599 17.4056C8.64182 17.3721 8.57567 17.3232 8.522 17.262L7.952 16.616C7.90978 16.5684 7.85796 16.5304 7.79996 16.5043C7.74196 16.4783 7.67909 16.4648 7.6155 16.4648C7.55191 16.4648 7.48904 16.4783 7.43104 16.5043C7.37304 16.5304 7.32122 16.5684 7.279 16.616L6.788 17.171C6.70848 17.2604 6.611 17.332 6.50192 17.3811C6.39284 17.4302 6.27463 17.4557 6.155 17.456H6.122C6.86948 18.2593 7.77461 18.8999 8.78082 19.3376C9.78703 19.7753 10.8727 20.0008 11.97 20C14.278 20 16.357 19.02 17.817 17.456H8.952Z" fill="white"/>
</svg>
