<svg width="44" height="44" viewBox="0 0 44 44" fill="none" xmlns="http://www.w3.org/2000/svg">
<circle cx="22" cy="22" r="22" fill="#080808"/>
<path d="M6.43506 14.552V29.4481C6.43506 30.4057 6.93666 31.2721 7.77266 31.7585L20.6775 39.2065C21.4983 39.6777 22.5167 39.6777 23.3375 39.2065L36.2423 31.7585C37.0631 31.2873 37.5799 30.4057 37.5799 29.4481V14.552C37.5799 13.5944 37.0783 12.728 36.2423 12.2416L23.3375 4.79365C22.5167 4.32245 21.4983 4.32245 20.6775 4.79365L7.77266 12.2416C6.95186 12.7128 6.45026 13.5944 6.45026 14.552H6.43506Z" fill="#213147"/>
<path d="M24.8119 24.8879L22.9727 29.9343C22.9271 30.0711 22.9271 30.2231 22.9727 30.3751L26.1343 39.0543L29.7975 36.9415L25.4047 24.8879C25.2983 24.6143 24.9183 24.6143 24.8119 24.8879Z" fill="#12AAFF"/>
<path d="M28.5053 16.4064C28.3989 16.1328 28.0189 16.1328 27.9125 16.4064L26.0733 21.4528C26.0277 21.5896 26.0277 21.7416 26.0733 21.8936L31.2565 36.1056L34.9197 33.9928L28.5053 16.4216V16.4064Z" fill="#12AAFF"/>
<path d="M21.9998 5.356C22.091 5.356 22.1822 5.3864 22.2582 5.432L36.2118 13.488C36.379 13.5792 36.4702 13.7616 36.4702 13.944V30.056C36.4702 30.2384 36.3638 30.4208 36.2118 30.512L22.2582 38.568C22.1822 38.6136 22.091 38.644 21.9998 38.644C21.9086 38.644 21.8174 38.6136 21.7414 38.568L7.7878 30.512C7.6206 30.4208 7.5294 30.2384 7.5294 30.056V13.9288C7.5294 13.7464 7.6358 13.564 7.7878 13.4728L21.7414 5.4168C21.8174 5.3712 21.9086 5.3408 21.9998 5.3408V5.356ZM21.9998 3C21.4982 3 21.0118 3.1216 20.5558 3.38L6.6022 11.436C5.7054 11.9528 5.1582 12.8952 5.1582 13.9288V30.0408C5.1582 31.0744 5.7054 32.0168 6.6022 32.5336L20.5558 40.5896C20.9966 40.848 21.4982 40.9696 21.9998 40.9696C22.5014 40.9696 22.9878 40.848 23.4438 40.5896L37.3974 32.5336C38.2942 32.0168 38.8414 31.0744 38.8414 30.0408V13.9288C38.8414 12.8952 38.2942 11.9528 37.3974 11.436L23.4286 3.38C22.9878 3.1216 22.4862 3 21.9846 3H21.9998Z" fill="#9DCCED"/>
<path d="M12.7588 36.1208L14.0508 32.5944L16.6348 34.7376L14.218 36.9568L12.7588 36.1208Z" fill="#213147"/>
<path d="M20.8149 12.7888H17.2733C17.0149 12.7888 16.7717 12.956 16.6805 13.1992L9.0957 33.9928L12.7589 36.1056L21.1189 13.1992C21.1949 12.9864 21.0429 12.7736 20.8301 12.7736L20.8149 12.7888Z" fill="white"/>
<path d="M27.0162 12.7888H23.4746C23.2162 12.7888 22.973 12.956 22.8818 13.1992L14.2178 36.9416L17.881 39.0544L27.305 13.1992C27.381 12.9864 27.229 12.7736 27.0162 12.7736V12.7888Z" fill="white"/>
</svg>
