<svg width="44" height="44" viewBox="0 0 44 44" fill="none" xmlns="http://www.w3.org/2000/svg">
<g clip-path="url(#clip0_812_914)">
<circle cx="22" cy="22" r="22" fill="#D9D9D9"/>
<path d="M35.8776 9.23412L34.6694 10.4422C37.5522 13.5948 39.1509 17.712 39.1509 21.9839C39.1509 26.2558 37.5522 30.373 34.6694 33.5255L35.8776 34.7337C39.0835 31.2562 40.8635 26.6996 40.8635 21.9698C40.8635 17.24 39.0835 12.6834 35.8776 9.20593V9.23412Z" fill="#5A5564"/>
<path d="M10.4702 9.33885C13.6227 6.45606 17.74 4.85741 22.0118 4.85741C26.2837 4.85741 30.401 6.45606 33.5535 9.33885L34.7616 8.13073C31.2841 4.92476 26.7276 3.14484 21.9978 3.14484C17.268 3.14484 12.7114 4.92476 9.23389 8.13073L10.4702 9.33885Z" fill="#5A5564"/>
<path d="M9.33904 33.5376C6.45966 30.3858 4.86311 26.2711 4.86311 22.002C4.86311 17.733 6.45966 13.6183 9.33904 10.4664L8.13091 9.2583C4.92494 12.7358 3.14502 17.2924 3.14502 22.0222C3.14502 26.752 4.92494 31.3086 8.13091 34.786L9.33904 33.5376Z" fill="#5A5564"/>
<path d="M33.5375 34.6531C30.385 37.5359 26.2677 39.1346 21.9959 39.1346C17.724 39.1346 13.6068 37.5359 10.4542 34.6531L9.24609 35.8613C12.7236 39.0672 17.2802 40.8472 22.01 40.8472C26.7398 40.8472 31.2964 39.0672 34.7738 35.8613L33.5375 34.6531Z" fill="#5A5564"/>
<path d="M29.6271 17.9689C29.3855 15.4479 27.2109 14.6023 24.4604 14.3445V10.8732H22.3341V14.2801C21.7743 14.2801 21.2025 14.2801 20.6346 14.2801V10.8732H18.5244V14.3687H14.2114V16.644C14.2114 16.644 15.782 16.6158 15.7578 16.644C16.041 16.6128 16.3252 16.6928 16.5506 16.8671C16.776 17.0414 16.9249 17.2964 16.966 17.5783V27.1466C16.9599 27.2461 16.934 27.3433 16.8897 27.4325C16.8454 27.5217 16.7837 27.6012 16.7082 27.6661C16.6341 27.7323 16.5474 27.7829 16.4533 27.8147C16.3592 27.8465 16.2596 27.859 16.1605 27.8514C16.1887 27.8755 14.6141 27.8514 14.6141 27.8514L14.2114 30.3925H18.4842V33.9444H20.6105V30.4448H22.3099V33.9283H24.4402V30.4166C28.0324 30.1992 30.5373 29.3132 30.8514 25.9506C31.1051 23.2444 29.8325 22.0363 27.7988 21.549C29.0351 20.9409 29.8003 19.8133 29.6271 17.9689ZM26.6471 25.5318C26.6471 28.1736 22.1206 27.8715 20.6789 27.8715V23.184C22.1206 23.188 26.6471 22.7732 26.6471 25.5318ZM25.6604 18.9274C25.6604 21.3436 21.883 21.0496 20.683 21.0496V16.789C21.883 16.789 25.6604 16.4104 25.6604 18.9274Z" fill="#F09242"/>
<path d="M21.996 44C17.6451 43.9992 13.3922 42.7084 9.77495 40.2907C6.15769 37.873 3.33852 34.437 1.67389 30.4172C0.00926087 26.3974 -0.426073 21.9742 0.42293 17.707C1.27193 13.4398 3.36715 9.52017 6.44366 6.44366C9.52017 3.36715 13.4398 1.27193 17.707 0.42293C21.9742 -0.426073 26.3974 0.00926087 30.4172 1.67389C34.437 3.33852 37.873 6.15769 40.2907 9.77495C42.7084 13.3922 43.9992 17.6451 44 21.996C44.0005 24.8857 43.4318 27.7473 42.3261 30.4172C41.2205 33.0871 39.5997 35.513 37.5564 37.5564C35.513 39.5997 33.0871 41.2205 30.4172 42.3261C27.7473 43.4318 24.8857 44.0005 21.996 44ZM21.996 1.71555C17.9875 1.71874 14.07 2.91019 10.7385 5.13933C7.407 7.36847 4.81114 10.5352 3.27901 14.2393C1.74687 17.9434 1.34724 22.0186 2.13062 25.9498C2.914 29.881 4.84522 33.4917 7.6802 36.3255C10.5152 39.1594 14.1266 41.0891 18.0581 41.871C21.9896 42.6528 26.0646 42.2515 29.7681 40.7179C33.4716 39.1843 36.6373 36.5872 38.8652 33.2548C41.093 29.9225 42.2829 26.0045 42.2845 21.996C42.2855 19.3317 41.7614 16.6934 40.7421 14.2319C39.7228 11.7703 38.2283 9.53387 36.344 7.65034C34.4597 5.76681 32.2226 4.27318 29.7607 3.25484C27.2988 2.2365 24.6602 1.71343 21.996 1.71555Z" fill="#282138"/>
</g>
<defs>
<clipPath id="clip0_812_914">
<rect width="44" height="44" fill="white"/>
</clipPath>
</defs>
</svg>
