<svg width="44" height="44" viewBox="0 0 44 44" fill="none" xmlns="http://www.w3.org/2000/svg">
<g clip-path="url(#clip0_812_881)">
<path d="M22 44C34.1503 44 44 34.1503 44 22C44 9.84974 34.1503 0 22 0C9.84974 0 0 9.84974 0 22C0 34.1503 9.84974 44 22 44Z" fill="#627EEA"/>
<path d="M22.6848 5.5V17.6962L32.9932 22.3025L22.6848 5.5Z" fill="white" fill-opacity="0.602"/>
<path d="M22.6847 5.5L12.375 22.3025L22.6847 17.6962V5.5Z" fill="white"/>
<path d="M22.6848 30.206V38.4931L33.0001 24.222L22.6848 30.206Z" fill="white" fill-opacity="0.602"/>
<path d="M22.6847 38.4931V30.2046L12.375 24.222L22.6847 38.4931Z" fill="white"/>
<path d="M22.6848 28.2879L32.9932 22.3025L22.6848 17.699V28.2879Z" fill="white" fill-opacity="0.2"/>
<path d="M12.375 22.3025L22.6847 28.2879V17.699L12.375 22.3025Z" fill="white" fill-opacity="0.602"/>
</g>
<defs>
<clipPath id="clip0_812_881">
<rect width="44" height="44" fill="white"/>
</clipPath>
</defs>
</svg>
