<svg width="44" height="44" viewBox="0 0 44 44" fill="none" xmlns="http://www.w3.org/2000/svg">
<g clip-path="url(#clip0_902_207)">
<path d="M22 0C9.84913 0 0 9.84913 0 22C0 34.1509 9.84913 44 22 44C34.1509 44 44 34.1509 44 22C44 9.84913 34.1509 0 22 0ZM15.158 9.19256C15.5872 9.12145 16.0278 9.1942 16.4113 9.3995L22.5507 12.9687C22.8332 13.1162 23.0688 13.34 23.2307 13.6146C23.3925 13.8893 23.4742 14.2037 23.4664 14.5224V16.9269L20.6033 18.6337V16.1528C20.593 15.8359 20.5021 15.5269 20.3391 15.255C20.1761 14.983 19.9464 14.7572 19.6718 14.5987L16.335 12.7359C16.0486 12.5825 15.7287 12.5023 15.4038 12.5023C15.0789 12.5023 14.759 12.5825 14.4726 12.7359L11.1358 14.5984C10.8504 14.744 10.6118 14.9669 10.447 15.2416C10.2822 15.5163 10.198 15.8318 10.2039 16.1521V20.0279C10.2142 20.3448 10.3051 20.6538 10.4681 20.9257C10.6311 21.1977 10.8608 21.4236 11.1354 21.582L14.4726 23.5238C14.7592 23.6766 15.079 23.7565 15.4038 23.7565C15.7286 23.7565 16.0484 23.6766 16.335 23.5238L20.5336 21.0396L23.4664 19.4095L27.665 16.9266C27.9516 16.7738 28.2714 16.6939 28.5962 16.6939C28.921 16.6939 29.2408 16.7738 29.5274 16.9266L35.7352 20.4937C36.0206 20.639 36.2593 20.8616 36.424 21.1361C36.5888 21.4106 36.6731 21.7259 36.6671 22.0461V29.2648C36.6571 29.5804 36.5671 29.8883 36.4055 30.1595C36.2438 30.4308 36.0159 30.6565 35.7431 30.8155L29.5357 34.3853C29.249 34.5387 28.9289 34.619 28.6038 34.619C28.2786 34.619 27.9585 34.5387 27.6719 34.3853L21.4641 30.8172C21.1789 30.6715 20.9405 30.4485 20.7759 30.1738C20.6114 29.8991 20.5274 29.5836 20.5336 29.2634V26.7816L23.32 25.1529V27.6451C23.3305 27.9616 23.4215 28.2702 23.5845 28.5417C23.7476 28.8132 23.9771 29.0387 24.2516 29.1967L27.5887 31.0592C27.8751 31.2126 28.195 31.2928 28.5199 31.2928C28.8448 31.2928 29.1647 31.2126 29.4511 31.0592L32.7879 29.1204C33.0728 28.9749 33.3111 28.7523 33.4756 28.478C33.6401 28.2036 33.7243 27.8886 33.7184 27.5687V23.7658C33.7083 23.4491 33.6175 23.1402 33.4547 22.8683C33.2919 22.5964 33.0624 22.3705 32.7879 22.2121L29.4511 20.35C29.1645 20.1972 28.8447 20.1174 28.5199 20.1174C28.1951 20.1174 27.8753 20.1972 27.5887 20.35L23.4046 22.7483L20.5336 24.4551L16.335 26.8613C16.0484 27.0141 15.7286 27.094 15.4038 27.094C15.079 27.094 14.7592 27.0141 14.4726 26.8613L8.26478 23.2836C7.98059 23.1387 7.74266 22.9172 7.57795 22.644C7.41324 22.3708 7.32834 22.057 7.33288 21.7381V14.5221C7.31666 14.19 7.40535 13.8613 7.58636 13.5824C7.76737 13.3035 8.03154 13.0887 8.34144 12.9683L14.5489 9.3995C14.7392 9.29765 14.945 9.22774 15.158 9.19256Z" fill="#9747FF"/>
</g>
<defs>
<clipPath id="clip0_902_207">
<rect width="44" height="44" fill="white"/>
</clipPath>
</defs>
</svg>
