<svg width="44" height="44" viewBox="0 0 44 44" fill="none" xmlns="http://www.w3.org/2000/svg">
<circle cx="22" cy="22" r="22" fill="#E8BB41"/>
<g clip-path="url(#clip0_1626_755)">
<path d="M16.8133 24.3573L21.528 29.0707C21.653 29.1956 21.8225 29.2658 21.9993 29.2658C22.1761 29.2658 22.3456 29.1956 22.4706 29.0707L27.1853 24.3573C27.3103 24.2323 27.4799 24.1621 27.6566 24.1621C27.8334 24.1621 28.003 24.2323 28.128 24.3573L30.2026 26.4307C30.3276 26.5557 30.3978 26.7252 30.3978 26.902C30.3978 27.0788 30.3276 27.2483 30.2026 27.3733L22.4706 35.1053C22.3456 35.2303 22.1761 35.3005 21.9993 35.3005C21.8225 35.3005 21.653 35.2303 21.528 35.1053L13.7973 27.3733C13.6723 27.2483 13.6021 27.0788 13.6021 26.902C13.6021 26.7252 13.6723 26.5557 13.7973 26.4307L15.872 24.3573C15.997 24.2323 16.1665 24.1621 16.3433 24.1621C16.5201 24.1621 16.6896 24.2323 16.8146 24.3573H16.8133ZM32.9386 19.3773L33.0306 19.4547L35.1053 21.528C35.2157 21.6383 35.284 21.7839 35.2981 21.9393C35.3122 22.0948 35.2714 22.2502 35.1826 22.3787L35.1053 22.472L33.0306 24.5453C32.9203 24.6558 32.7748 24.724 32.6193 24.7381C32.4639 24.7523 32.3084 24.7114 32.18 24.6227L32.088 24.5453L30.0133 22.4707C29.9034 22.3603 29.8356 22.2149 29.8218 22.0597C29.8079 21.9046 29.8488 21.7495 29.9373 21.6213L30.0133 21.528L32.088 19.4547C32.1842 19.3584 32.3076 19.2939 32.4415 19.2698C32.5755 19.2458 32.7136 19.2633 32.8373 19.32L32.9386 19.3773ZM11.912 19.4547L13.9866 21.528C14.1116 21.653 14.1818 21.8225 14.1818 21.9993C14.1818 22.1761 14.1116 22.3456 13.9866 22.4707L11.912 24.5467C11.787 24.6716 11.6174 24.7418 11.4406 24.7418C11.2639 24.7418 11.0943 24.6716 10.9693 24.5467L8.89331 22.4707C8.76833 22.3456 8.69812 22.1761 8.69812 21.9993C8.69812 21.8225 8.76833 21.653 8.89331 21.528L10.968 19.4547C11.093 19.3297 11.2625 19.2595 11.4393 19.2595C11.6161 19.2595 11.787 19.3297 11.912 19.4547ZM22.3786 19.3773L22.472 19.4547L24.5453 21.528C24.6557 21.6383 24.724 21.7839 24.7381 21.9393C24.7522 22.0948 24.7114 22.2502 24.6226 22.3787L24.5453 22.472L22.472 24.5453C22.3617 24.6558 22.2161 24.724 22.0607 24.7381C21.9052 24.7523 21.7497 24.7114 21.6213 24.6227L21.528 24.5453L19.4546 22.4707C19.3445 22.3604 19.2765 22.2151 19.2624 22.06C19.2483 21.9048 19.2889 21.7496 19.3773 21.6213L19.4546 21.528L21.528 19.4547C21.6242 19.3584 21.7476 19.2939 21.8815 19.2698C22.0155 19.2458 22.1536 19.2633 22.2773 19.32L22.3786 19.3773ZM22.472 8.89465L30.2026 16.6253C30.3276 16.7503 30.3978 16.9199 30.3978 17.0967C30.3978 17.2734 30.3276 17.443 30.2026 17.568L28.128 19.6427C28.003 19.7676 27.8334 19.8378 27.6566 19.8378C27.4799 19.8378 27.3103 19.7676 27.1853 19.6427L22.472 14.9293C22.41 14.8672 22.3365 14.818 22.2555 14.7844C22.1745 14.7508 22.0877 14.7335 22 14.7335C21.9123 14.7335 21.8255 14.7508 21.7445 14.7844C21.6635 14.818 21.5899 14.8672 21.528 14.9293L16.8146 19.6427C16.6896 19.7676 16.5201 19.8378 16.3433 19.8378C16.1665 19.8378 15.997 19.7676 15.872 19.6427L13.7973 17.568C13.6723 17.443 13.6021 17.2734 13.6021 17.0967C13.6021 16.9199 13.6723 16.7503 13.7973 16.6253L21.528 8.89465C21.653 8.76967 21.8225 8.69946 21.9993 8.69946C22.1761 8.69946 22.347 8.76967 22.472 8.89465Z" fill="white"/>
</g>
<defs>
<clipPath id="clip0_1626_755">
<rect width="32" height="32" fill="white" transform="translate(6 6)"/>
</clipPath>
</defs>
</svg>
