<svg width="890" height="890" viewBox="0 0 890 890" fill="none" xmlns="http://www.w3.org/2000/svg">
<g clip-path="url(#clip0_3_25)">
<rect width="890" height="890" rx="445" fill="url(#paint0_linear_3_25)"/>
<ellipse cx="428" cy="37" rx="462" ry="98" fill="black"/>
<ellipse cx="580" cy="842" rx="670" ry="129" fill="black"/>
<ellipse cx="70.7994" cy="751.961" rx="670" ry="98" transform="rotate(90.5819 70.7994 751.961)" fill="black"/>
<ellipse cx="907.799" cy="607.961" rx="670" ry="98" transform="rotate(90.5819 907.799 607.961)" fill="black"/>
<path d="M47.1567 427.731V759.821H444.952H842.747V427.731V95.6418H444.952H47.1567V427.731ZM484.771 168.868C494.112 171.797 502.345 177.576 508.124 185.255C510.182 187.867 513.111 193.013 560.292 275.342C574.858 300.833 587.92 323.394 589.187 325.611C593.462 332.894 594.966 337.406 594.966 342.868C594.966 348.727 593.858 352.289 590.216 358.464C588.791 360.838 586.1 365.509 584.279 368.755C582.458 372.001 578.975 378.096 576.6 382.213C574.225 386.329 565.201 402.003 556.572 417.044C548.022 432.085 540.66 444.672 540.343 445.147C539.71 445.939 525.461 470.717 499.574 515.998C472.105 564.209 462.763 580.675 462.763 581.15C462.763 581.466 501.712 581.704 549.289 581.704C634.31 581.704 635.814 581.704 638.347 580.12C639.772 579.25 641.276 577.587 641.672 576.479C643.335 572.125 642.543 569.829 635.26 557.084L628.135 544.497L575.967 544.339L523.798 544.101L543.985 508.874C555.147 489.479 564.726 472.854 565.359 471.825L566.467 470.084H614.994H663.442L667.559 471.984C669.775 473.013 673.021 475.308 674.683 476.971C676.346 478.712 682.52 488.529 688.458 499.057C694.395 509.428 707.615 532.385 717.748 550.038C727.881 567.692 737.222 583.999 738.41 586.374C747.197 602.919 745.059 624.452 733.343 638.385C727.01 645.905 720.835 650.259 711.811 653.663L706.19 655.721L519.84 655.959C356.289 656.117 333.569 655.959 333.965 654.93C334.282 654.296 348.373 629.439 365.393 599.753C382.492 569.988 396.425 545.368 396.504 545.051C396.583 544.655 399.67 539.035 403.391 532.543C422.074 499.849 435.61 476.338 438.064 472.459C440.756 468.263 453.422 446.256 493.32 376.513L512.636 342.789L507.016 332.973C503.928 327.59 496.012 313.974 489.521 302.654C483.029 291.333 476.775 281.279 475.746 280.25C472.817 277.638 467.513 277.796 464.426 280.646C463.08 281.913 455.243 294.816 446.852 309.382C438.539 323.948 425.557 346.589 418.036 359.651C410.516 372.713 393.812 401.924 380.829 424.565C367.847 447.206 356.764 466.442 356.131 467.392C355.576 468.263 355.339 469.292 355.656 469.53C355.893 469.846 367.926 470.084 382.413 470.084C404.262 470.084 408.853 470.242 410.199 471.271C411.307 472.142 411.387 472.379 410.516 472.459C409.566 472.459 409.487 472.617 410.437 473.171C411.149 473.646 411.228 474.042 410.674 474.358C410.199 474.675 409.962 475.388 410.278 476.1C410.516 476.813 410.278 477.208 409.724 477.05C409.17 476.892 408.537 477.288 408.378 477.763C408.141 478.317 408.378 478.792 408.853 478.792C409.328 478.792 409.012 479.979 408.141 481.404C407.27 482.75 406.558 484.887 406.558 486.075C406.558 487.341 406.241 488.291 405.766 488.291C405.37 488.291 404.578 489.716 404.103 491.458C403.154 494.703 402.283 495.416 401.57 493.595C401.333 493.12 401.333 493.833 401.57 495.178C401.808 496.841 401.649 497.791 401.095 497.791C400.62 497.791 400.224 498.503 400.224 499.374C400.224 500.245 399.908 500.957 399.433 500.957C399.037 500.957 398.641 501.67 398.641 502.541C398.641 503.411 398.325 504.836 397.85 505.707C397.454 506.578 396.741 508.003 396.266 508.874C395.871 509.744 395.475 511.09 395.475 511.961C395.475 512.832 395.158 513.623 394.762 513.782C394.446 513.861 393.337 516.315 392.308 519.165C389.142 528.11 388.746 528.981 387.4 531.039C386.608 532.068 385.975 533.573 385.975 534.364C385.975 535.156 385.738 535.789 385.342 535.789C384.867 535.789 383.679 538.164 382.571 541.41C381.7 544.022 375.763 544.497 343.623 544.497H312.353L309.583 548.851C308.079 551.226 306.812 553.284 306.812 553.522C306.812 553.68 303.725 559.142 300.004 565.634C296.204 572.046 282.984 595.082 270.555 616.773L247.994 656.117H204.929H161.785L164.081 651.922C165.347 649.705 181.972 620.573 201.129 587.245C220.207 553.917 243.481 513.307 252.823 496.999C262.164 480.692 272.376 462.88 275.542 457.418C278.709 451.955 302.537 410.315 328.582 364.797C354.627 319.278 382.65 270.276 390.962 255.947C399.195 241.54 411.466 220.007 418.274 208.054C429.436 188.579 431.336 185.65 436.64 180.346C446.218 170.768 455.48 167.047 470.046 166.968C476.934 166.889 479.625 167.285 484.771 168.868Z" fill="black"/>
<path d="M401.61 470.282H439.608L396.86 544.2H367.471L401.61 470.282Z" fill="#C44F17"/>
<path d="M379.642 470.282H409.328H439.311L396.86 544.2L311.958 544.794L379.642 470.282Z" fill="url(#paint1_linear_3_25)"/>
<path d="M555.681 267.525L512.339 342.631L504.027 327.788L555.681 267.525Z" fill="#401D0D" fill-opacity="0.2"/>
</g>
<defs>
<linearGradient id="paint0_linear_3_25" x1="445" y1="0" x2="445" y2="890" gradientUnits="userSpaceOnUse">
<stop stop-color="#E96E27"/>
<stop offset="1" stop-color="#AA390C"/>
</linearGradient>
<linearGradient id="paint1_linear_3_25" x1="403.391" y1="544.794" x2="342.534" y2="503.53" gradientUnits="userSpaceOnUse">
<stop stop-color="#401D0D"/>
<stop offset="0.947917" stop-color="#C34E17" stop-opacity="0"/>
</linearGradient>
<clipPath id="clip0_3_25">
<rect width="890" height="890" rx="445" fill="white"/>
</clipPath>
</defs>
</svg>
