<svg width="1030" height="263" viewBox="0 0 1030 263" fill="none" xmlns="http://www.w3.org/2000/svg">
<path d="M0 67.6672V0H126.144L177 34.7358V105.11L140.603 131.274L177 157.89V227.813L126.144 263H0V193.528L51.8535 157.89H111.685L137.113 175.935V209.317L111.685 226.009H42.8789V207.513H105.701L115.673 199.844V185.408L104.206 177.739H58.3352L19.9437 204.806V244.504H119.163L155.561 217.889V166.461L119.163 141.199H19.9437V157.89L3.98873 168.266H0V92.4786H3.98873L19.9437 105.11V121.801H119.163L155.561 95.6364V43.307L119.163 18.4957H19.9437V57.7427L58.3352 84.3585H105.701L115.673 76.6895V62.705L104.206 55.036H42.8789V36.5403H112.682L137.113 53.6827V86.1629L111.685 103.756H51.8535L0 67.6672Z" fill="#83DED5"/>
<path d="M252.38 241.76C252.38 248.8 248.347 252.32 240.28 252.32C231.92 252.32 227.74 248.8 227.74 241.76V150.68C227.74 138.653 231.333 130.293 238.52 125.6C245.707 120.907 253.993 118.56 263.38 118.56H288.46C293.887 118.56 296.6 122.007 296.6 128.9C296.893 135.793 294.18 139.24 288.46 139.24H265.14C259.86 139.24 256.413 140.267 254.8 142.32C253.187 144.373 252.38 147.233 252.38 150.9V241.76ZM385.602 118.56C389.415 118.56 393.302 119.367 397.262 120.98C401.369 122.593 405.329 124.647 409.142 127.14H408.922C412.735 129.927 415.669 133.593 417.722 138.14C419.775 142.54 420.802 147.673 420.802 153.54V216.02C420.802 228.047 416.842 236.92 408.922 242.64C401.149 248.213 393.375 251 385.602 251H350.402C346.589 251 342.702 250.34 338.742 249.02C334.782 247.7 330.895 245.573 327.082 242.64C319.162 237.067 315.202 228.193 315.202 216.02V153.54C315.202 147.673 316.229 142.54 318.282 138.14C320.335 133.593 323.269 129.927 327.082 127.14H326.862C330.529 124.647 334.415 122.593 338.522 120.98C342.629 119.367 346.589 118.56 350.402 118.56H385.602ZM381.642 230.32C387.069 230.32 390.882 228.78 393.082 225.7C395.429 222.62 396.602 219.32 396.602 215.8V153.76C396.602 150.093 395.429 146.793 393.082 143.86C390.882 140.78 387.069 139.24 381.642 139.24H354.362C348.935 139.24 345.049 140.78 342.702 143.86C340.502 146.793 339.402 150.093 339.402 153.76V215.8C339.402 219.32 340.502 222.62 342.702 225.7C345.049 228.78 348.935 230.32 354.362 230.32H381.642ZM472.82 241.76C472.82 248.8 468.787 252.32 460.72 252.32C452.653 252.32 448.62 248.8 448.62 241.76V153.32C448.62 147.307 449.573 142.1 451.48 137.7C453.387 133.3 456.393 129.707 460.5 126.92C468.273 121.347 476.047 118.56 483.82 118.56H519.24C526.72 118.56 534.493 121.347 542.56 126.92C550.48 132.493 554.44 141.293 554.44 153.32V241.76C554.44 248.8 550.407 252.32 542.34 252.32C534.273 252.32 530.24 248.8 530.24 241.76V155.3C530.24 151.487 529.067 147.82 526.72 144.3L526.94 144.52C525.033 141 521.147 139.24 515.28 139.24H487.78C481.767 139.24 477.807 141 475.9 144.52C473.847 147.6 472.82 151.193 472.82 155.3V241.76ZM581.357 139.24C576.077 139.24 573.291 135.793 572.997 128.9C572.997 122.007 575.784 118.56 581.357 118.56H657.697C662.391 118.56 666.057 119.367 668.697 120.98C671.484 122.447 673.024 124.5 673.317 127.14C673.464 129.487 673.391 131.833 673.097 134.18C672.951 136.527 672.437 138.287 671.557 139.46L604.017 230.32H666.277C671.557 230.32 674.197 233.767 674.197 240.66C674.491 244.18 673.904 246.82 672.437 248.58C670.971 250.193 668.917 251 666.277 251H587.297C577.764 251 572.631 248.213 571.897 242.64C571.457 237.507 571.971 233.327 573.437 230.1L641.197 139.24H581.357ZM717.097 215.8C717.097 219.32 718.197 222.62 720.397 225.7C722.744 228.78 726.631 230.32 732.057 230.32H759.557C764.984 230.32 768.797 229 770.997 226.36C773.344 223.573 774.517 220.42 774.517 216.9V214.48C774.517 207.587 778.551 204.14 786.617 204.14C794.684 204.14 798.717 207.587 798.717 214.48V217.12C798.717 223.28 797.691 228.34 795.637 232.3C793.731 236.26 790.797 239.707 786.837 242.64C779.064 248.213 771.291 251 763.517 251H726.557C718.784 251 711.231 248.213 703.897 242.64C700.377 239.707 697.664 236.04 695.757 231.64C693.851 227.093 692.897 221.887 692.897 216.02V153.32C692.897 141.44 696.564 132.64 703.897 126.92C707.564 124.28 711.304 122.227 715.117 120.76C719.077 119.147 722.891 118.34 726.557 118.34H763.517C767.037 118.34 770.924 119.073 775.177 120.54C779.431 121.86 783.391 123.693 787.057 126.04C790.577 128.533 793.364 131.98 795.417 136.38C797.617 140.78 798.717 145.987 798.717 152V181.7C798.717 185.073 797.691 188.08 795.637 190.72C793.731 193.36 790.137 194.68 784.857 194.68H737.337C732.057 194.68 729.271 191.233 728.977 184.34C728.977 177.447 731.764 174 737.337 174H774.737L774.517 153.54C774.517 149.873 773.344 146.573 770.997 143.64C768.797 140.56 764.984 139.02 759.557 139.02H732.057C726.631 139.02 722.744 140.56 720.397 143.64C718.197 146.573 717.097 149.873 717.097 153.54V215.8ZM898.245 174C901.912 174 905.798 174.88 909.905 176.64C914.158 178.253 918.118 180.307 921.785 182.8H921.565C925.378 185.587 928.312 189.18 930.365 193.58C932.418 197.98 933.445 203.26 933.445 209.42V216.02C933.445 228.047 929.485 236.92 921.565 242.64C917.752 245.573 913.865 247.7 909.905 249.02C905.945 250.34 902.058 251 898.245 251H860.845C857.032 251 853.145 250.34 849.185 249.02C845.225 247.7 841.338 245.573 837.525 242.64C829.605 237.067 825.645 228.193 825.645 216.02V213.38C825.645 207.073 829.678 203.993 837.745 204.14C845.958 204.14 850.065 207.22 850.065 213.38V215.8C850.065 219.32 851.165 222.62 853.365 225.7C855.565 228.78 859.452 230.32 865.025 230.32H894.065C899.638 230.32 903.525 228.78 905.725 225.7C907.925 222.62 909.025 219.32 909.025 215.8V209.64C909.025 207.733 908.732 205.9 908.145 204.14C907.705 202.38 906.898 200.84 905.725 199.52C904.552 198.053 903.012 196.88 901.105 196C899.198 195.12 896.852 194.68 894.065 194.68H861.945C854.465 194.68 846.618 192.04 838.405 186.76C830.632 181.773 826.745 173.193 826.745 161.02V153.54C826.745 147.673 827.772 142.54 829.825 138.14C831.878 133.593 834.812 129.927 838.625 127.14H838.405C842.072 124.647 845.958 122.593 850.065 120.98C854.172 119.367 858.132 118.56 861.945 118.56H897.145C900.958 118.56 904.845 119.367 908.805 120.98C912.912 122.593 916.872 124.647 920.685 127.14H920.465C924.278 129.927 927.212 133.593 929.265 138.14C931.318 142.54 932.345 147.673 932.345 153.54V155.52C932.345 158.6 931.318 160.873 929.265 162.34C927.212 163.66 924.205 164.393 920.245 164.54C912.178 164.687 908.145 161.68 908.145 155.52V153.76C908.145 150.093 906.972 146.793 904.625 143.86C902.425 140.78 898.612 139.24 893.185 139.24H865.905C860.478 139.24 856.592 140.78 854.245 143.86C852.045 146.793 850.945 150.093 850.945 153.76V159.04C850.945 162.853 852.045 166.3 854.245 169.38C856.592 172.46 860.478 174 865.905 174H898.245Z" fill="#F3F3F3"/>
</svg>
