<svg width="280" height="102" viewBox="0 0 280 102" fill="none" xmlns="http://www.w3.org/2000/svg">
<path d="M0 33.3791V20H24.9437L35 26.8679V40.7822L27.8028 45.9554L35 51.2178V65.0429L24.9437 72H0V58.2641L10.2535 51.2178H22.0845L27.1127 54.7856V61.3859L22.0845 64.6861H8.47887V61.0292H20.9014L22.8732 59.5129V56.6587L20.6056 55.1424H11.5352L3.94366 60.494V68.3431H23.5634L30.7606 63.0806V52.9125L23.5634 47.9177H3.94366V51.2178L0.788732 53.2693H0V38.2847H0.788732L3.94366 40.7822V44.0823H23.5634L30.7606 38.9091V28.5626L23.5634 23.6569H3.94366V31.4168L11.5352 36.6792H20.9014L22.8732 35.1629V32.3979L20.6056 30.8816H8.47887V27.2247H22.2817L27.1127 30.6141V37.036L22.0845 40.5146H10.2535L0 33.3791Z" fill="#83DED5"/>
<path d="M57.53 66.06C57.53 68.3 56.2467 69.42 53.68 69.42C51.02 69.42 49.69 68.3 49.69 66.06V37.08C49.69 33.2533 50.8333 30.5933 53.12 29.1C55.4067 27.6067 58.0433 26.86 61.03 26.86H69.01C70.7367 26.86 71.6 27.9567 71.6 30.15C71.6933 32.3433 70.83 33.44 69.01 33.44H61.59C59.91 33.44 58.8133 33.7667 58.3 34.42C57.7867 35.0733 57.53 35.9833 57.53 37.15V66.06ZM99.9188 26.86C101.132 26.86 102.369 27.1167 103.629 27.63C104.935 28.1433 106.195 28.7967 107.409 29.59H107.339C108.552 30.4767 109.485 31.6433 110.139 33.09C110.792 34.49 111.119 36.1233 111.119 37.99V57.87C111.119 61.6967 109.859 64.52 107.339 66.34C104.865 68.1133 102.392 69 99.9188 69H88.7188C87.5055 69 86.2688 68.79 85.0088 68.37C83.7488 67.95 82.5122 67.2733 81.2988 66.34C78.7788 64.5667 77.5188 61.7433 77.5188 57.87V37.99C77.5188 36.1233 77.8455 34.49 78.4988 33.09C79.1522 31.6433 80.0855 30.4767 81.2988 29.59H81.2288C82.3955 28.7967 83.6322 28.1433 84.9388 27.63C86.2455 27.1167 87.5055 26.86 88.7188 26.86H99.9188ZM98.6588 62.42C100.385 62.42 101.599 61.93 102.299 60.95C103.045 59.97 103.419 58.92 103.419 57.8V38.06C103.419 36.8933 103.045 35.8433 102.299 34.91C101.599 33.93 100.385 33.44 98.6588 33.44H89.9788C88.2522 33.44 87.0155 33.93 86.2688 34.91C85.5688 35.8433 85.2188 36.8933 85.2188 38.06V57.8C85.2188 58.92 85.5688 59.97 86.2688 60.95C87.0155 61.93 88.2522 62.42 89.9788 62.42H98.6588ZM127.67 66.06C127.67 68.3 126.387 69.42 123.82 69.42C121.253 69.42 119.97 68.3 119.97 66.06V37.92C119.97 36.0067 120.273 34.35 120.88 32.95C121.487 31.55 122.443 30.4067 123.75 29.52C126.223 27.7467 128.697 26.86 131.17 26.86H142.44C144.82 26.86 147.293 27.7467 149.86 29.52C152.38 31.2933 153.64 34.0933 153.64 37.92V66.06C153.64 68.3 152.357 69.42 149.79 69.42C147.223 69.42 145.94 68.3 145.94 66.06V38.55C145.94 37.3367 145.567 36.17 144.82 35.05L144.89 35.12C144.283 34 143.047 33.44 141.18 33.44H132.43C130.517 33.44 129.257 34 128.65 35.12C127.997 36.1 127.67 37.2433 127.67 38.55V66.06ZM162.205 33.44C160.525 33.44 159.638 32.3433 159.545 30.15C159.545 27.9567 160.431 26.86 162.205 26.86H186.495C187.988 26.86 189.155 27.1167 189.995 27.63C190.881 28.0967 191.371 28.75 191.465 29.59C191.511 30.3367 191.488 31.0833 191.395 31.83C191.348 32.5767 191.185 33.1367 190.905 33.51L169.415 62.42H189.225C190.905 62.42 191.745 63.5167 191.745 65.71C191.838 66.83 191.651 67.67 191.185 68.23C190.718 68.7433 190.065 69 189.225 69H164.095C161.061 69 159.428 68.1133 159.195 66.34C159.055 64.7067 159.218 63.3767 159.685 62.35L181.245 33.44H162.205ZM205.395 57.8C205.395 58.92 205.745 59.97 206.445 60.95C207.191 61.93 208.428 62.42 210.155 62.42H218.905C220.631 62.42 221.845 62 222.545 61.16C223.291 60.2733 223.665 59.27 223.665 58.15V57.38C223.665 55.1867 224.948 54.09 227.515 54.09C230.081 54.09 231.365 55.1867 231.365 57.38V58.22C231.365 60.18 231.038 61.79 230.385 63.05C229.778 64.31 228.845 65.4067 227.585 66.34C225.111 68.1133 222.638 69 220.165 69H208.405C205.931 69 203.528 68.1133 201.195 66.34C200.075 65.4067 199.211 64.24 198.605 62.84C197.998 61.3933 197.695 59.7367 197.695 57.87V37.92C197.695 34.14 198.861 31.34 201.195 29.52C202.361 28.68 203.551 28.0267 204.765 27.56C206.025 27.0467 207.238 26.79 208.405 26.79H220.165C221.285 26.79 222.521 27.0233 223.875 27.49C225.228 27.91 226.488 28.4933 227.655 29.24C228.775 30.0333 229.661 31.13 230.315 32.53C231.015 33.93 231.365 35.5867 231.365 37.5V46.95C231.365 48.0233 231.038 48.98 230.385 49.82C229.778 50.66 228.635 51.08 226.955 51.08H211.835C210.155 51.08 209.268 49.9833 209.175 47.79C209.175 45.5967 210.061 44.5 211.835 44.5H223.735L223.665 37.99C223.665 36.8233 223.291 35.7733 222.545 34.84C221.845 33.86 220.631 33.37 218.905 33.37H210.155C208.428 33.37 207.191 33.86 206.445 34.84C205.745 35.7733 205.395 36.8233 205.395 37.99V57.8ZM263.033 44.5C264.199 44.5 265.436 44.78 266.743 45.34C268.096 45.8533 269.356 46.5067 270.523 47.3H270.453C271.666 48.1867 272.599 49.33 273.253 50.73C273.906 52.13 274.233 53.81 274.233 55.77V57.87C274.233 61.6967 272.973 64.52 270.453 66.34C269.239 67.2733 268.003 67.95 266.743 68.37C265.483 68.79 264.246 69 263.033 69H251.133C249.919 69 248.683 68.79 247.423 68.37C246.163 67.95 244.926 67.2733 243.713 66.34C241.193 64.5667 239.932 61.7433 239.932 57.87V57.03C239.932 55.0233 241.216 54.0433 243.783 54.09C246.396 54.09 247.703 55.07 247.703 57.03V57.8C247.703 58.92 248.053 59.97 248.753 60.95C249.453 61.93 250.689 62.42 252.463 62.42H261.703C263.476 62.42 264.713 61.93 265.413 60.95C266.113 59.97 266.463 58.92 266.463 57.8V55.84C266.463 55.2333 266.369 54.65 266.183 54.09C266.043 53.53 265.786 53.04 265.413 52.62C265.039 52.1533 264.549 51.78 263.943 51.5C263.336 51.22 262.589 51.08 261.703 51.08H251.483C249.103 51.08 246.606 50.24 243.993 48.56C241.519 46.9733 240.283 44.2433 240.283 40.37V37.99C240.283 36.1233 240.609 34.49 241.263 33.09C241.916 31.6433 242.849 30.4767 244.062 29.59H243.993C245.159 28.7967 246.396 28.1433 247.703 27.63C249.009 27.1167 250.269 26.86 251.483 26.86H262.683C263.896 26.86 265.133 27.1167 266.393 27.63C267.699 28.1433 268.959 28.7967 270.173 29.59H270.103C271.316 30.4767 272.249 31.6433 272.903 33.09C273.556 34.49 273.882 36.1233 273.882 37.99V38.62C273.882 39.6 273.556 40.3233 272.903 40.79C272.249 41.21 271.293 41.4433 270.033 41.49C267.466 41.5367 266.183 40.58 266.183 38.62V38.06C266.183 36.8933 265.809 35.8433 265.063 34.91C264.363 33.93 263.149 33.44 261.423 33.44H252.743C251.016 33.44 249.779 33.93 249.033 34.91C248.333 35.8433 247.983 36.8933 247.983 38.06V39.74C247.983 40.9533 248.333 42.05 249.033 43.03C249.779 44.01 251.016 44.5 252.743 44.5H263.033Z" fill="#F3F3F3"/>
</svg>
