<svg width="35" height="52" viewBox="0 0 35 52" fill="none" xmlns="http://www.w3.org/2000/svg">
<path d="M0 13.3791V0H24.9437L35 6.86792V20.7822L27.8028 25.9554L35 31.2178V45.0429L24.9437 52H0V38.2641L10.2535 31.2178H22.0845L27.1127 34.7856V41.3859L22.0845 44.6861H8.47887V41.0292H20.9014L22.8732 39.5129V36.6587L20.6056 35.1424H11.5352L3.94366 40.494V48.3431H23.5634L30.7606 43.0806V32.9125L23.5634 27.9177H3.94366V31.2178L0.788732 33.2693H0V18.2847H0.788732L3.94366 20.7822V24.0823H23.5634L30.7606 18.9091V8.56261L23.5634 3.65695H3.94366V11.4168L11.5352 16.6792H20.9014L22.8732 15.1629V12.3979L20.6056 10.8816H8.47887V7.2247H22.2817L27.1127 10.6141V17.036L22.0845 20.5146H10.2535L0 13.3791Z" fill="#83DED5"/>
</svg>
